<svg width="50" height="45" viewBox="0 0 148 45" fill="none" xmlns="http://www.w3.org/2000/svg">
<path d="M5.33609 15.14C4.41609 15.14 3.60276 14.98 2.89609 14.66C2.20276 14.34 1.65609 13.8933 1.25609 13.32C0.856094 12.7467 0.64276 12.1067 0.616094 11.4H2.09609C2.16276 12.08 2.46276 12.68 2.99609 13.2C3.52943 13.7067 4.30943 13.96 5.33609 13.96C6.28276 13.96 7.02943 13.72 7.57609 13.24C8.13609 12.7467 8.41609 12.1267 8.41609 11.38C8.41609 10.78 8.26276 10.3 7.95609 9.94C7.64943 9.56667 7.26943 9.29333 6.81609 9.12C6.36276 8.93333 5.73609 8.73333 4.93609 8.52C4.00276 8.26667 3.26276 8.02 2.71609 7.78C2.16943 7.54 1.70276 7.16667 1.31609 6.66C0.929427 6.15333 0.736094 5.46667 0.736094 4.6C0.736094 3.88 0.92276 3.24 1.29609 2.68C1.66943 2.10667 2.19609 1.66 2.87609 1.34C3.55609 1.02 4.33609 0.86 5.21609 0.86C6.50943 0.86 7.54943 1.18 8.33609 1.82C9.13609 2.44667 9.59609 3.26 9.71609 4.26H8.19609C8.10276 3.68667 7.78943 3.18 7.25609 2.74C6.72276 2.28667 6.00276 2.06 5.09609 2.06C4.25609 2.06 3.55609 2.28667 2.99609 2.74C2.43609 3.18 2.15609 3.78667 2.15609 4.56C2.15609 5.14667 2.30943 5.62 2.61609 5.98C2.92276 6.34 3.30276 6.61333 3.75609 6.8C4.22276 6.98667 4.84943 7.18667 5.63609 7.4C6.54276 7.65333 7.27609 7.90667 7.83609 8.16C8.39609 8.4 8.86943 8.77333 9.25609 9.28C9.64276 9.78667 9.83609 10.4667 9.83609 11.32C9.83609 11.9733 9.66276 12.5933 9.31609 13.18C8.96943 13.7667 8.45609 14.24 7.77609 14.6C7.09609 14.96 6.28276 15.14 5.33609 15.14ZM30.5014 1.02L26.5414 15H24.9814L21.4614 3.08L17.8614 15L16.3414 15.02L12.4614 1.02H13.9614L17.1614 13.28L20.7414 1.02H22.3014L25.7814 13.28L29.0014 1.02H30.5014ZM35.043 2.16V7.38H40.343V8.54H35.043V13.84H40.943V15H33.643V0.999999H40.943V2.16H35.043ZM46.1016 2.16V7.38H51.4016V8.54H46.1016V13.84H52.0016V15H44.7016V0.999999H52.0016V2.16H46.1016ZM63.9402 1.02V2.18H60.0602V15H58.6602V2.18H54.7602V1.02H63.9402ZM80.1791 7.78C80.9657 7.92667 81.6324 8.32667 82.1791 8.98C82.7257 9.63333 82.9991 10.3933 82.9991 11.26C82.9991 11.9667 82.8191 12.6067 82.4591 13.18C82.1124 13.74 81.5991 14.1867 80.9191 14.52C80.2391 14.84 79.4257 15 78.4791 15H73.6391V1.02H78.3391C79.7524 1.02 80.8257 1.34667 81.5591 2C82.3057 2.65333 82.6791 3.5 82.6791 4.54C82.6791 5.40667 82.4457 6.11333 81.9791 6.66C81.5124 7.19333 80.9124 7.56667 80.1791 7.78ZM75.0391 7.2H78.2991C79.2457 7.2 79.9724 6.98 80.4791 6.54C80.9991 6.08667 81.2591 5.46667 81.2591 4.68C81.2591 3.90667 80.9991 3.3 80.4791 2.86C79.9724 2.42 79.2257 2.2 78.2391 2.2H75.0391V7.2ZM78.3791 13.82C79.3924 13.82 80.1791 13.58 80.7391 13.1C81.3124 12.62 81.5991 11.96 81.5991 11.12C81.5991 10.28 81.2991 9.61333 80.6991 9.12C80.1124 8.61333 79.3191 8.36 78.3191 8.36H75.0391V13.82H78.3791ZM87.9127 1.02V9.82C87.9127 11.2067 88.2393 12.2333 88.8927 12.9C89.5593 13.5667 90.466 13.9 91.6127 13.9C92.7593 13.9 93.6527 13.5733 94.2927 12.92C94.946 12.2533 95.2727 11.22 95.2727 9.82V1.02H96.6727V9.8C96.6727 11.5733 96.1993 12.9067 95.2527 13.8C94.3193 14.6933 93.0993 15.14 91.5927 15.14C90.086 15.14 88.8593 14.6933 87.9127 13.8C86.9793 12.9067 86.5127 11.5733 86.5127 9.8V1.02H87.9127ZM111.335 15H109.935L102.195 3.24V15H100.795V1.02H102.195L109.935 12.76V1.02H111.335V15ZM119.646 1.02C121.193 1.02 122.52 1.3 123.626 1.86C124.733 2.42 125.58 3.22667 126.166 4.28C126.753 5.33333 127.046 6.58667 127.046 8.04C127.046 9.48 126.753 10.7267 126.166 11.78C125.58 12.82 124.733 13.62 123.626 14.18C122.52 14.7267 121.193 15 119.646 15H115.506V1.02H119.646ZM119.646 13.84C121.593 13.84 123.073 13.3333 124.086 12.32C125.113 11.2933 125.626 9.86667 125.626 8.04C125.626 6.2 125.113 4.76667 124.086 3.74C123.073 2.7 121.593 2.18 119.646 2.18H116.906V13.84H119.646ZM132.027 13.86H137.047V15H130.627V1.02H132.027V13.86ZM141.445 2.16V7.38H146.745V8.54H141.445V13.84H147.345V15H140.045V0.999999H147.345V2.16H141.445ZM47.0246 33.625C47.2946 33.055 47.7096 32.59 48.2696 32.23C48.8396 31.87 49.5096 31.69 50.2796 31.69C51.0296 31.69 51.6996 31.865 52.2896 32.215C52.8796 32.555 53.3396 33.045 53.6696 33.685C54.0096 34.315 54.1796 35.05 54.1796 35.89C54.1796 36.73 54.0096 37.47 53.6696 38.11C53.3396 38.75 52.8746 39.245 52.2746 39.595C51.6846 39.945 51.0196 40.12 50.2796 40.12C49.4996 40.12 48.8246 39.945 48.2546 39.595C47.6946 39.235 47.2846 38.77 47.0246 38.2V40H45.9896V28.9H47.0246V33.625ZM53.1146 35.89C53.1146 35.21 52.9796 34.625 52.7096 34.135C52.4496 33.635 52.0896 33.255 51.6296 32.995C51.1696 32.735 50.6496 32.605 50.0696 32.605C49.5096 32.605 48.9946 32.74 48.5246 33.01C48.0646 33.28 47.6996 33.665 47.4296 34.165C47.1596 34.665 47.0246 35.245 47.0246 35.905C47.0246 36.565 47.1596 37.145 47.4296 37.645C47.6996 38.145 48.0646 38.53 48.5246 38.8C48.9946 39.07 49.5096 39.205 50.0696 39.205C50.6496 39.205 51.1696 39.075 51.6296 38.815C52.0896 38.545 52.4496 38.16 52.7096 37.66C52.9796 37.15 53.1146 36.56 53.1146 35.89ZM63.6116 31.81L58.7516 43.855H57.6566L59.2466 39.955L55.8866 31.81H57.0416L59.8316 38.8L62.5316 31.81H63.6116ZM77.5817 29.515L74.2217 35.92V40H73.1717V35.92L69.7817 29.515H70.9667L73.6967 34.96L76.4117 29.515H77.5817ZM80.3935 30.265C80.1835 30.265 80.0035 30.19 79.8535 30.04C79.7035 29.89 79.6285 29.705 79.6285 29.485C79.6285 29.265 79.7035 29.085 79.8535 28.945C80.0035 28.795 80.1835 28.72 80.3935 28.72C80.6035 28.72 80.7835 28.795 80.9335 28.945C81.0835 29.085 81.1585 29.265 81.1585 29.485C81.1585 29.705 81.0835 29.89 80.9335 30.04C80.7835 30.19 80.6035 30.265 80.3935 30.265ZM80.9185 31.81V40H79.8685V31.81H80.9185ZM87.8862 31.66C88.8662 31.66 89.6662 31.965 90.2862 32.575C90.9062 33.175 91.2162 34.05 91.2162 35.2V40H90.1812V35.32C90.1812 34.43 89.9562 33.75 89.5062 33.28C89.0662 32.81 88.4612 32.575 87.6912 32.575C86.9012 32.575 86.2712 32.825 85.8012 33.325C85.3312 33.825 85.0962 34.56 85.0962 35.53V40H84.0462V31.81H85.0962V33.205C85.3562 32.705 85.7312 32.325 86.2212 32.065C86.7112 31.795 87.2662 31.66 87.8862 31.66ZM97.7234 31.69C98.4934 31.69 99.1634 31.87 99.7334 32.23C100.303 32.59 100.713 33.045 100.963 33.595V31.81H102.013V40.21C102.013 40.96 101.848 41.625 101.518 42.205C101.198 42.785 100.748 43.23 100.168 43.54C99.5884 43.86 98.9284 44.02 98.1884 44.02C97.1384 44.02 96.2634 43.77 95.5634 43.27C94.8734 42.77 94.4434 42.09 94.2734 41.23H95.3084C95.4884 41.8 95.8284 42.255 96.3284 42.595C96.8384 42.935 97.4584 43.105 98.1884 43.105C98.7184 43.105 99.1934 42.99 99.6134 42.76C100.033 42.54 100.363 42.21 100.603 41.77C100.843 41.33 100.963 40.81 100.963 40.21V38.185C100.703 38.745 100.288 39.21 99.7184 39.58C99.1584 39.94 98.4934 40.12 97.7234 40.12C96.9734 40.12 96.2984 39.945 95.6984 39.595C95.1084 39.245 94.6434 38.75 94.3034 38.11C93.9734 37.47 93.8084 36.73 93.8084 35.89C93.8084 35.05 93.9734 34.315 94.3034 33.685C94.6434 33.045 95.1084 32.555 95.6984 32.215C96.2984 31.865 96.9734 31.69 97.7234 31.69ZM100.963 35.905C100.963 35.245 100.828 34.665 100.558 34.165C100.288 33.665 99.9184 33.28 99.4484 33.01C98.9884 32.74 98.4784 32.605 97.9184 32.605C97.3384 32.605 96.8184 32.735 96.3584 32.995C95.8984 33.255 95.5334 33.635 95.2634 34.135C95.0034 34.625 94.8734 35.21 94.8734 35.89C94.8734 36.56 95.0034 37.15 95.2634 37.66C95.5334 38.16 95.8984 38.545 96.3584 38.815C96.8184 39.075 97.3384 39.205 97.9184 39.205C98.4784 39.205 98.9884 39.07 99.4484 38.8C99.9184 38.53 100.288 38.145 100.558 37.645C100.828 37.145 100.963 36.565 100.963 35.905Z" fill="#40434A"/>
</svg>
